<svg width="20" height="25" viewBox="0 0 20 25" fill="none" xmlns="http://www.w3.org/2000/svg">
<path d="M1 5.25C0.585786 5.25 0.25 5.58579 0.25 6C0.25 6.41421 0.585786 6.75 1 6.75V5.25ZM19.5303 6.53033C19.8232 6.23744 19.8232 5.76256 19.5303 5.46967L14.7574 0.696699C14.4645 0.403806 13.9896 0.403806 13.6967 0.696699C13.4038 0.989593 13.4038 1.46447 13.6967 1.75736L17.9393 6L13.6967 10.2426C13.4038 10.5355 13.4038 11.0104 13.6967 11.3033C13.9896 11.5962 14.4645 11.5962 14.7574 11.3033L19.5303 6.53033ZM1 6.75H19V5.25H1V6.75Z" fill="#6A75CA"/>
<path d="M19 18.25C19.4142 18.25 19.75 18.5858 19.75 19C19.75 19.4142 19.4142 19.75 19 19.75V18.25ZM0.469669 19.5303C0.176777 19.2374 0.176777 18.7626 0.469669 18.4697L5.24264 13.6967C5.53553 13.4038 6.01041 13.4038 6.3033 13.6967C6.59619 13.9896 6.59619 14.4645 6.3033 14.7574L2.06066 19L6.3033 23.2426C6.59619 23.5355 6.59619 24.0104 6.3033 24.3033C6.01041 24.5962 5.53553 24.5962 5.24264 24.3033L0.469669 19.5303ZM19 19.75H1V18.25H19V19.75Z" fill="#6A75CA"/>
</svg>
